<svg width="64" height="64" viewBox="0 0 64 64" fill="none" xmlns="http://www.w3.org/2000/svg">
<rect width="64" height="64" rx="32" fill="url(#paint0_linear_202_3456)"/>
<g clip-path="url(#clip0_202_3456)">
<path d="M29.2064 23.2144C29.0797 22.8933 28.7169 22.7356 28.3957 22.8625C26.5829 23.5779 25.0357 24.8059 23.9215 26.4136C22.7807 28.0597 22.1777 29.9922 22.1777 32.0021C22.1777 32.3473 22.4576 32.627 22.8027 32.627C23.1477 32.627 23.4276 32.3472 23.4276 32.0021C23.4276 28.4574 25.5578 25.3263 28.8545 24.0252C29.1756 23.8985 29.3331 23.5355 29.2064 23.2144ZM36.1179 31.383C35.7727 31.383 35.4929 31.6629 35.4929 32.008C35.4929 33.9377 33.9229 35.5078 31.9931 35.5078C30.0633 35.5078 28.4933 33.9378 28.4933 32.008C28.4933 30.0782 30.0633 28.5082 31.9931 28.5082C32.3382 28.5082 32.618 28.2284 32.618 27.8832C32.618 27.538 32.3382 27.2583 31.9931 27.2583C29.3741 27.2583 27.2434 29.389 27.2434 32.008C27.2434 34.627 29.3742 36.7577 31.9931 36.7577C34.612 36.7577 36.7428 34.627 36.7428 32.008C36.7428 31.6629 36.463 31.383 36.1179 31.383ZM38.4346 31.3594C38.0895 31.3594 37.8097 31.6392 37.8097 31.9844V32.0079C37.8097 32.3531 38.0895 32.6329 38.4346 32.6329C38.7797 32.6329 39.0595 32.353 39.0595 32.0079V31.9844C39.0595 31.6392 38.7797 31.3594 38.4346 31.3594ZM35.9057 37.0591C35.7884 36.9421 35.6295 36.8762 35.4639 36.876C35.2982 36.8763 35.1393 36.9421 35.022 37.0591C34.9051 37.1765 34.8393 37.3353 34.8389 37.501C34.8389 37.6654 34.9057 37.8266 35.022 37.9429C35.1395 38.0596 35.2983 38.1251 35.4639 38.1254C35.6282 38.1254 35.7895 38.0591 35.9057 37.9429C36.0225 37.8254 36.0883 37.6666 36.0889 37.501C36.0889 37.3359 36.022 37.1754 35.9057 37.0591ZM45.8752 38.6606C45.5285 38.6603 45.1871 38.7453 44.8811 38.9083L43.0316 37.0588C42.9144 36.9416 42.7554 36.8757 42.5897 36.8757H38.0325C37.6874 36.8757 37.4076 37.1555 37.4076 37.5007C37.4076 37.8459 37.6875 38.1256 38.0325 38.1256H42.3307L43.9974 39.7923C43.8349 40.098 43.75 40.4391 43.7503 40.7854C43.7503 41.957 44.7035 42.9102 45.8752 42.9102C47.0469 42.9102 48 41.957 48 40.7854C48.0001 39.6137 47.0469 38.6606 45.8752 38.6606ZM45.8752 41.6604C45.3927 41.6604 45.0003 41.2679 45.0003 40.7855C45.0003 40.303 45.3928 39.9105 45.8752 39.9105C46.3577 39.9105 46.7502 40.303 46.7502 40.7855C46.7502 41.2679 46.3576 41.6604 45.8752 41.6604Z" fill="white"/>
<path d="M45.8751 21.0917C44.7035 21.0917 43.7503 22.0449 43.7503 23.2166C43.7499 23.5629 43.8348 23.9039 43.9975 24.2097L42.3308 25.8764H35.4922C34.6234 25.3796 33.6477 25.064 32.6248 24.9712V23.8415H39.2149C39.3266 23.8415 39.4364 23.8115 39.5326 23.7547C39.6288 23.6979 39.7081 23.6163 39.7621 23.5185L41.6613 20.0767C41.9262 20.1911 42.2118 20.2499 42.5005 20.2497C43.6721 20.2497 44.6253 19.2965 44.6253 18.1248C44.6253 16.9532 43.6721 16 42.5005 16C41.3288 16 40.3756 16.9532 40.3756 18.1249C40.3756 18.5346 40.4925 18.9173 40.6941 19.2422L38.846 22.5916H32.6248V16.6276C32.6248 16.2824 32.345 16.0026 31.9999 16.0026H29.1975C28.8524 16.0026 28.5726 16.2824 28.5726 16.6276V18.5615C27.2833 18.8878 26.0483 19.3996 24.9062 20.0809L23.544 18.7188C23.4859 18.6607 23.417 18.6146 23.3412 18.5832C23.2653 18.5518 23.184 18.5356 23.1019 18.5356C23.0198 18.5356 22.9385 18.5518 22.8627 18.5833C22.7869 18.6147 22.718 18.6608 22.66 18.7189L18.7098 22.6721C18.4658 22.9162 18.4659 23.3117 18.7099 23.5557L20.0706 24.9164C19.3893 26.0586 18.8775 27.2936 18.5513 28.5828H16.6269C16.2818 28.5828 16.002 28.8626 16.002 29.2078V34.7963C16.002 35.1415 16.2818 35.4212 16.6269 35.4212H18.5514C18.8776 36.7105 19.3894 37.9455 20.0707 39.0876L18.71 40.4483C18.466 40.6923 18.466 41.0878 18.7099 41.3319L22.6601 45.2851C22.7773 45.4023 22.9362 45.4682 23.102 45.4683H23.1021C23.2679 45.4683 23.4268 45.4024 23.5441 45.2852L24.9063 43.9231C26.0484 44.6044 27.2834 45.1162 28.5726 45.4426V47.3734C28.5726 47.7185 28.8522 47.9982 29.1971 47.9984H31.9998C32.1655 47.9984 32.3245 47.9341 32.4416 47.817C32.4997 47.759 32.5458 47.69 32.5772 47.6142C32.6086 47.5383 32.6248 47.457 32.6248 47.3749V41.3819H38.8448L40.6949 44.7566C40.4859 45.0921 40.3753 45.4797 40.3756 45.875C40.3756 47.0467 41.3288 47.9999 42.5005 47.9999C43.6722 47.9999 44.6254 47.0467 44.6254 45.875C44.6254 44.7033 43.6721 43.7501 42.5005 43.7501C42.2032 43.7501 41.9201 43.8117 41.663 43.9224L39.763 40.4564C39.7091 40.3582 39.6298 40.2762 39.5334 40.2191C39.437 40.162 39.327 40.1319 39.215 40.1319H32.6247V38.4493C32.6247 38.1041 32.3448 37.8244 31.9998 37.8244C28.7893 37.8244 26.1774 35.2125 26.1774 32.002C26.1774 28.8304 28.7266 26.2433 31.8836 26.1811C31.9197 26.1877 31.9563 26.1911 31.993 26.1913C34.4118 26.1913 36.6034 27.7138 37.4465 29.9797C37.4909 30.0993 37.5708 30.2023 37.6755 30.2751C37.7802 30.3479 37.9047 30.387 38.0322 30.387C38.1066 30.387 38.1804 30.3736 38.2501 30.3476C38.5736 30.2273 38.7383 29.8675 38.6179 29.544C38.2762 28.6256 37.7515 27.8085 37.0956 27.1263H42.5896C42.7553 27.1263 42.9143 27.0604 43.0315 26.9432L44.881 25.0937C45.187 25.2566 45.5285 25.3417 45.8751 25.3414C47.0468 25.3414 48 24.3882 48 23.2165C48 22.0449 47.0468 21.0917 45.8751 21.0917ZM42.5005 17.2499C42.983 17.2499 43.3754 17.6424 43.3754 18.1249C43.3754 18.6073 42.9829 18.9998 42.5005 18.9998C42.018 18.9998 41.6255 18.6073 41.6255 18.1249C41.6255 17.6424 42.018 17.2499 42.5005 17.2499ZM42.5005 45.0002C42.983 45.0002 43.3754 45.3927 43.3754 45.8751C43.3754 46.3576 42.9828 46.7501 42.5005 46.7501C42.018 46.7501 41.6255 46.3576 41.6255 45.8751C41.6255 45.3927 42.018 45.0002 42.5005 45.0002ZM31.3749 24.9571C27.767 25.2746 24.9275 28.3131 24.9275 32.0021C24.9275 35.6911 27.7668 38.7295 31.3748 39.047V46.7498L29.8224 46.7489V44.9471C29.8224 44.8042 29.7734 44.6656 29.6835 44.5544C29.5937 44.4432 29.4685 44.3662 29.3287 44.3361C27.8398 44.0162 26.4352 43.4342 25.1538 42.6061C25.0337 42.5285 24.8907 42.4944 24.7485 42.5095C24.6064 42.5246 24.4737 42.588 24.3726 42.6891L23.1022 43.9596L20.0355 40.8906L21.3049 39.6212C21.406 39.5201 21.4693 39.3874 21.4844 39.2453C21.4995 39.1031 21.4654 38.9601 21.3878 38.8401C20.5598 37.5586 19.9777 36.1541 19.658 34.6652C19.6279 34.5254 19.5509 34.4002 19.4397 34.3104C19.3285 34.2205 19.1899 34.1715 19.047 34.1715H17.2518V29.8329H19.0469C19.1898 29.8329 19.3285 29.7839 19.4396 29.694C19.5508 29.6042 19.6279 29.4789 19.6579 29.3392C19.9777 27.8503 20.5597 26.4458 21.3878 25.1643C21.4654 25.0443 21.4995 24.9012 21.4844 24.7591C21.4693 24.6169 21.4059 24.4843 21.3048 24.3832L20.0355 23.1138L23.1021 20.0448L24.3726 21.3153C24.4737 21.4164 24.6063 21.4798 24.7485 21.4949C24.8906 21.51 25.0336 21.4759 25.1537 21.3983C26.4351 20.5703 27.8397 19.9881 29.3286 19.6683C29.4684 19.6382 29.5936 19.5612 29.6835 19.45C29.7733 19.3388 29.8223 19.2002 29.8223 19.0573V17.2526H31.3748V24.9571H31.3749ZM45.8751 24.0914C45.3926 24.0914 45.0002 23.6989 45.0002 23.2165C45.0002 22.7341 45.3927 22.3416 45.8751 22.3416C46.3576 22.3416 46.7501 22.7341 46.7501 23.2165C46.7501 23.6989 46.3576 24.0914 45.8751 24.0914Z" fill="white"/>
<path d="M45.8748 29.8848C44.9205 29.8848 44.1113 30.5171 43.8438 31.3847H41.9999C41.6548 31.3847 41.375 31.6645 41.375 32.0096C41.375 32.3548 41.6549 32.6346 41.9999 32.6346H43.8438C44.1112 33.5021 44.9204 34.1345 45.8747 34.1345C47.0464 34.1345 47.9996 33.1813 47.9996 32.0096C47.9996 30.838 47.0464 29.8848 45.8748 29.8848ZM45.8748 32.8846C45.3923 32.8846 44.9998 32.4921 44.9998 32.0096C44.9998 31.5272 45.3923 31.1347 45.8748 31.1347C46.3572 31.1347 46.7497 31.5272 46.7497 32.0096C46.7497 32.4921 46.3571 32.8846 45.8748 32.8846Z" fill="white"/>
</g>
<defs>
<linearGradient id="paint0_linear_202_3456" x1="0" y1="0" x2="64" y2="64" gradientUnits="userSpaceOnUse">
<stop stop-color="#006D77"/>
<stop offset="1" stop-color="#00B4D8"/>
</linearGradient>
<clipPath id="clip0_202_3456">
<rect width="32" height="32" fill="white" transform="translate(16 16)"/>
</clipPath>
</defs>
</svg>
