<svg width="64" height="64" viewBox="0 0 64 64" fill="none" xmlns="http://www.w3.org/2000/svg">
<rect width="64" height="64" rx="32" fill="url(#paint0_linear_202_3466)"/>
<g clip-path="url(#clip0_202_3466)">
<path d="M47.0673 31.0577H46.5195C46.2025 23.9612 40.031 17.7933 32.9344 17.48V16.9327C32.8848 15.6886 31.1083 15.6896 31.0592 16.9327V17.4804C23.9638 17.7967 17.7958 23.9656 17.4803 31.0609H16.9327C15.6886 31.1105 15.6896 32.887 16.9327 32.9361H17.4801C17.7941 40.034 23.9648 46.2051 31.0624 46.5198V47.0674C31.112 48.3114 32.8885 48.3105 32.9376 47.0674V46.5198C40.0366 46.205 46.2076 40.0319 46.5201 32.9329H47.0673C48.3114 32.8834 48.3104 31.1068 47.0673 31.0577ZM44.6395 31.0577H40.5959C40.1597 27.0363 36.956 23.8331 32.9345 23.3976V19.36C39.1772 19.8171 44.1786 24.8161 44.6395 31.0577ZM37.2686 32.9329H38.7069C38.2923 35.9194 35.9235 38.2896 32.9377 38.7063V37.2686C32.8881 36.0246 31.1115 36.0255 31.0624 37.2686V38.7071C28.0747 38.2931 25.7034 35.9233 25.2874 32.9361H26.7315C27.9755 32.8865 27.9746 31.11 26.7315 31.0609H25.2869C25.7016 28.0733 28.072 25.7025 31.0593 25.2871V26.7315C31.1089 27.9755 32.8855 27.9745 32.9345 26.7315V25.2871C35.9208 25.7023 38.2906 28.0716 38.7065 31.0577H37.2687C36.0246 31.1073 36.0255 32.8838 37.2686 32.9329ZM31.0592 19.3605V23.3977C27.0366 23.8333 23.8323 27.0381 23.3975 31.0609H19.3603C19.8196 24.8199 24.8184 19.8205 31.0592 19.3605ZM19.3601 32.9361H23.3978C23.8341 36.9585 27.0393 40.1624 31.0623 40.5965V44.6399C24.8191 44.1812 19.818 39.1797 19.3601 32.9361ZM32.9376 44.6399V40.5958C36.9587 40.1589 40.1615 36.9547 40.5962 32.9329H44.6402C44.1837 39.178 39.182 44.1811 32.9376 44.6399Z" fill="white"/>
<path d="M33.9828 31.0582H32.9354V30.0108C32.8858 28.7668 31.1092 28.7677 31.0602 30.0108V31.0582H30.0127C28.7687 31.1078 28.7697 32.8844 30.0127 32.9334H31.0602V33.9809C31.1097 35.2249 32.8863 35.2239 32.9354 33.9809V32.9334H33.9828C35.2268 32.8839 35.2259 31.1073 33.9828 31.0582Z" fill="white"/>
</g>
<defs>
<linearGradient id="paint0_linear_202_3466" x1="0" y1="0" x2="64" y2="64" gradientUnits="userSpaceOnUse">
<stop stop-color="#006D77"/>
<stop offset="1" stop-color="#00B4D8"/>
</linearGradient>
<clipPath id="clip0_202_3466">
<rect width="32" height="32" fill="white" transform="translate(16 16)"/>
</clipPath>
</defs>
</svg>
