<svg width="64" height="64" viewBox="0 0 64 64" fill="none" xmlns="http://www.w3.org/2000/svg">
<rect width="64" height="64" rx="32" fill="url(#paint0_linear_202_3448)"/>
<g clip-path="url(#clip0_202_3448)">
<path fill-rule="evenodd" clip-rule="evenodd" d="M44.4734 48L38.5791 42.2796L42.1042 38.6472L47.9986 44.3664L44.4734 48ZM33.2841 31.6097C33.151 31.6097 33.0192 31.5835 32.8963 31.5325C32.7733 31.4815 32.6616 31.4068 32.5676 31.3126C32.4734 31.2185 32.3986 31.1068 32.3476 30.9838C32.2966 30.8608 32.2704 30.7289 32.2704 30.5957V23.1211C32.2704 22.5611 32.7242 22.1073 33.2841 22.1073H37.4324C37.9917 22.1073 38.4461 22.5611 38.4461 23.1211C38.4461 23.681 37.9917 24.1348 37.4324 24.1348H34.2982V25.7893H36.3956C36.9552 25.7893 37.4094 26.2433 37.4094 26.8033C37.4094 27.3632 36.9552 27.817 36.3956 27.817H34.2982V29.582H37.4324C37.9917 29.5817 38.4461 30.0358 38.4461 30.5957C38.4461 31.1557 37.9923 31.6095 37.4324 31.6095L33.2841 31.6097ZM42.1336 22.0463H42.0853C40.1852 22.0593 38.6431 23.6093 38.6431 25.5123V28.0941C38.6431 30.0052 40.1982 31.5604 42.1094 31.5604C44.0209 31.5604 45.5755 30.0052 45.5755 28.0941V25.5123C45.5755 23.6093 44.0339 22.0593 42.1336 22.0463ZM40.6709 28.0941V25.5123C40.6709 24.7193 41.316 24.0737 42.1094 24.0737C42.9026 24.0737 43.5477 24.7192 43.5477 25.5123V28.0941C43.5477 28.8872 42.9026 29.5326 42.1094 29.5326C41.3161 29.5326 40.6709 28.8872 40.6709 28.0941ZM26.1966 24.3088V25.6199C26.1966 25.7126 26.2779 25.7939 26.3702 25.7939H29.0793C30.2934 25.7939 31.2805 26.7814 31.2805 27.9954V29.3066C31.2805 30.5207 30.2934 31.5084 29.0793 31.5084H25.1828C24.6226 31.5084 24.1691 31.0542 24.1691 30.4943C24.1691 29.9344 24.6226 29.4806 25.1828 29.4806H29.0793C29.1717 29.4806 29.2527 29.3993 29.2527 29.3066V27.9954C29.2527 27.9027 29.1717 27.8214 29.0793 27.8214H26.3702C25.1562 27.8214 24.1691 26.8339 24.1691 25.6199V24.3088C24.1691 23.0947 25.1562 22.1073 26.3702 22.1073H30.2674C30.8267 22.1073 31.2811 22.5611 31.2811 23.121C31.2811 23.6809 30.8267 24.1348 30.2674 24.1348H26.3702C26.2779 24.1348 26.1966 24.2161 26.1966 24.3088ZM39.9208 37.9348L36.8788 34.9841C36.3179 35.677 35.6864 36.3096 34.9946 36.8717C34.9762 36.8866 34.9579 36.9012 34.9395 36.9159L38.014 39.8996L39.9208 37.9348ZM25.979 35.2811C23.7252 35.0483 21.7026 33.9541 20.2732 32.1961C19.5711 31.3326 19.046 30.3391 18.7281 29.2725C18.4102 28.2058 18.3056 27.087 18.4204 25.9799C18.6532 23.7262 19.7466 21.7036 21.5049 20.2746C23.0198 19.0434 24.8787 18.375 26.8319 18.375C27.1287 18.375 27.4255 18.3909 27.7207 18.4214C29.8036 18.6364 31.6887 19.586 33.0907 21.1165C33.155 21.1104 33.2196 21.1073 33.2841 21.1073H36.0551C35.8165 20.7249 35.5542 20.3578 35.2699 20.008C33.4432 17.7602 30.8457 16.3564 27.9646 16.059C27.5883 16.0199 27.2102 16.0002 26.8319 16C24.3337 16 21.9461 16.8556 20.0069 18.4316C17.7597 20.258 16.3556 22.8554 16.058 25.7359C15.7614 28.6066 16.6097 31.4549 18.4304 33.6944C20.2571 35.9412 22.8545 37.3459 25.7349 37.6435C28.6055 37.94 31.4539 37.0911 33.6932 35.2709C34.6436 34.4984 35.4287 33.5959 36.0442 32.6095L33.2842 32.6097C33.2146 32.6097 33.1454 32.6061 33.0769 32.5989C32.8033 32.896 32.5086 33.173 32.1953 33.4278C31.3317 34.13 30.3382 34.6551 29.2716 34.9731C28.205 35.2911 27.0861 35.3958 25.979 35.2811Z" fill="white"/>
</g>
<defs>
<linearGradient id="paint0_linear_202_3448" x1="0" y1="0" x2="64" y2="64" gradientUnits="userSpaceOnUse">
<stop stop-color="#006D77"/>
<stop offset="1" stop-color="#00B4D8"/>
</linearGradient>
<clipPath id="clip0_202_3448">
<rect width="32" height="32" fill="white" transform="translate(16 16)"/>
</clipPath>
</defs>
</svg>
